<?xml version="1.0" encoding="UTF-8" standalone="no"?>
<!-- Created with Inkscape (http://www.inkscape.org/) -->

<svg
   version="1.1"
   id="svg1"
   width="185.56194"
   height="191.79913"
   viewBox="0 0 185.56194 191.79913"
   xmlns="http://www.w3.org/2000/svg"
   xmlns:svg="http://www.w3.org/2000/svg">
  <defs
     id="defs1" />
  <g
     id="g1"
     transform="translate(200.5435,-4.3691775)">
    <g
       id="g9"
       transform="translate(-217.87152,1.2521352)">
      <path
         style="fill:#ece4d6"
         d="m 114,193 c 8.60569,-4.2256 -3.9006,3.95332 -0.76235,0.41188 l 0.46897,-0.25337 z M 82.242264,181.25 c -3.796057,-3.7743 -13.830858,-13.81427 -12.4093,-14.35737 5.921083,7.34685 13.068318,13.58715 19.149852,20.7839 -2.32177,-2.06227 -4.518691,-4.25864 -6.740552,-6.42653 z M 130,184.73546 c 1.63368,-3.17135 9.68417,-6.72142 3.20859,-1.94448 l -1.49571,1.1603 z m 34.87239,-3.7496 c 2.59744,-2.51186 1.93431,-8.14984 3.05929,-1.49147 -0.013,0.80978 -6.49803,3.74147 -3.05929,1.49147 z m -12.23677,-5.94604 c -2.1456,-8.98496 -13.05689,1.49737 -12.07962,1.22817 3.61686,-7.06552 11.43348,-7.39706 14.67976,0.1251 6.31202,6.92942 -0.67367,0.46225 -2.60014,-1.35327 z m 23.00527,-8.96251 c 3.30512,-1.3979 5.00579,-9.30752 4.0576,-1.66947 -0.81462,1.45796 -9.46428,5.12176 -4.0576,1.66947 z M 174,158.01307 c -0.1636,-5.64486 9.59195,-9.61313 1.31435,-3.14458 -1.44115,1.65847 2.61082,5.89051 -1.31435,3.14458 z m 8.3128,-12.93206 c 3.40642,-5.74252 0.55686,1.71036 -0.75322,1.97936 z M 63.96189,128.75 c -5.384437,-0.80808 -13.922124,-17.48479 -5.72873,-6.81233 8.232951,8.53034 24.16675,8.96031 31.007696,-1.57893 7.960557,-9.92719 -0.683811,6.72074 -5.258249,7.37406 -5.910372,3.68457 -13.829881,4.53597 -20.020717,1.0172 z m 69.11932,-0.39682 c -5.38178,0.66543 -13.74182,-17.1054 -6.396,-6.91521 8.86577,9.41608 26.02595,8.57281 33.14444,-2.58532 1.38178,3.80787 -9.38909,12.8105 -16.442,11.98244 -3.57723,0.21729 -7.24811,-0.58199 -10.30644,-2.48191 z M 188,129.03386 c 0.81529,-5.52219 11.28046,-7.95953 2.77431,-2.16826 -0.70293,0.71389 -1.35756,2.94729 -2.77431,2.16826 z M 25.694236,124.41493 c -5.134485,-5.87392 6.672544,3.33657 1.492502,0.92399 z M 17.32814,111.5 c 0.242334,-8.24515 -0.430071,3.49375 0.166361,3.16 l -0.07859,-1.18628 z m 185.01467,-2 c 0.19272,-9.827787 0.83976,9.1997 0.004,1.1393 -0.001,-0.37977 -0.002,-0.75953 -0.004,-1.1393 z M 63.104283,101.08561 c -2.813031,-8.376223 11.72348,2.32414 0.992341,0.44206 z M 132,101.01315 c -3.38667,-8.502342 12.66522,1.0133 1.47488,0.68068 z m 68.53232,-6.911305 c -2.13188,-2.689644 -12.70388,-11.663228 -4.00987,-6.076666 0.54215,0.15256 8.07009,9.91526 4.00987,6.076666 z M 22.924829,89.309907 c 6.668938,-5.728452 -1.84528,4.541605 -0.75961,0.700221 L 22.55714,89.648849 Z M 26.349414,71 c 0.01508,-9.767246 1.008478,2.14299 0.114663,3.022056 l -0.07006,-1.176832 z M 190.28601,65.5 c 0.75916,-7.033382 0.25656,7.454326 0,0 z M 29.121182,50 c 0.992774,-8.052607 4.854932,-4.626084 0,0 z m 5.962336,-13.894287 c 1.523498,-3.821964 11.511419,-13.524229 10.329335,-10.789322 -3.414522,3.195108 -7.35316,8.708234 -10.329335,10.789322 z M 179,30.820376 c -0.99022,-4.189133 -10.3832,-11.520331 -8.68539,-12.279795 4.09903,3.491976 11.81703,13.72906 10.54997,15.48189 C 180.23233,32.961384 179.61633,31.890751 179,30.820376 Z M 51.626475,19.79536 c 3.175014,-3.161172 19.4177,-9.754997 8.054872,-3.53382 -2.584769,1.388074 -5.250696,2.652676 -8.054872,3.53382 z M 70.5,10.463885 C 75.19066,8.4275476 77.262993,9.3751753 71.113723,11.108361 69.617702,11.850967 66.823289,11.9714 70.5,10.463885 Z m 38.25,-7.2078727 c 4.2954,-0.4454485 23.40651,0.1070386 9.49299,0.342319 -3.16251,0.053988 -6.36179,0.2153574 -9.49299,-0.342319 z"
         id="path39" />
      <path
         style="fill:#e9dbc7"
         d="m 80.96584,179.25 c -2.641559,-2.61578 -6.126024,-6.57285 -1.30845,-1.77261 3.883304,2.45205 8.469222,9.67355 2.224052,2.72916 -0.305201,-0.31885 -0.610401,-0.6377 -0.915602,-0.95655 z m 60.99237,-5.5 c 2.09373,-3.41407 6.21903,-4.67846 1.44768,-0.82282 -3.85703,3.86103 -6.9417,6.44051 -1.44768,0.82282 z M 64.491423,130.13502 C 52.691913,124.593 46.715578,108.55728 53.192671,96.967113 c -1.295874,9.117147 -1.459426,19.091207 4.552086,26.689257 7.004838,9.60956 23.770655,10.0407 30.575278,-0.0203 8.382274,-4.43328 2.665358,-20.35372 6.980173,-23.06783 3.510321,13.58534 -5.314272,29.9831 -19.979009,31.45356 -3.69314,0.42767 -7.499012,-0.23415 -10.829776,-1.88674 z M 135.5,130.93904 c -13.29096,-4.91164 -19.98204,-22.53911 -12.98619,-34.939431 -2.81749,11.734611 -0.92154,27.532461 11.46318,32.947071 11.38374,5.67625 27.11558,-2.1705 28.12272,-15.13357 -0.28585,-4.21076 1.38903,-20.84382 2.87342,-8.71861 1.3998,14.75196 -12.28769,30.33479 -27.70744,26.29298 z M 41.958208,28.75 c 12.988405,-12.180632 -10.708447,11.440032 0,0 z"
         id="path38" />
      <path
         style="fill:#cfd0cd"
         d="m 175.5,153 c 10.91835,-10.60845 -7.3958,8.94583 0,0 z M 78,127.28385 c 3.505459,-2.87748 7.836504,-1.71399 1.739666,0.21168 0.534866,0.13946 -4.524527,0.87812 -1.739666,-0.21168 z M 188.48356,126.5 c 3.43183,-15.05287 2.15152,-30.579988 2.16625,-45.87467 -3.94691,5.442541 13.66478,11.623027 4.00834,11.277026 -3.58642,9.892634 -0.25911,22.402504 -0.56889,30.798964 -1.75745,1.42008 -3.65298,2.66542 -5.6057,3.79868 z m -59.79454,-3.75 c -5.53124,-5.885 8.70743,7.23826 0,0 z m -101.668964,0.77417 c -7.494648,-1.94771 2.352562,-10.82674 -1.183186,-16.32236 0.747193,-4.96475 1.531507,-19.328471 -5.971557,-13.849933 2.469561,-4.662633 11.254673,-8.568984 7.293355,0.385392 -0.796329,10.143661 2.198986,20.319191 0.451992,30.398871 l -0.370156,-0.38355 -3.69e-4,-3.8e-4 z M 201.28601,100.5 c 0.63201,-6.363715 0.29311,7.51825 0,0 z M 62.75,101.9199 c -3.337703,-4.990129 10.947325,3.56245 1.349756,0.5919 -0.449919,-0.1973 -0.899837,-0.3946 -1.349756,-0.5919 z"
         id="path37" />
      <path
         style="fill:#f5d0a4"
         d="m 66,157.85763 c -13.454945,-2.04059 -26.55754,-11.41684 -29.115584,-25.40427 -3.243423,-12.18001 2.862134,-24.28053 8.332755,-34.820203 1.899025,-4.259031 16.120154,-14.895234 9.728613,-4.618016 -5.96299,9.440209 -6.361056,22.623999 1.639224,31.018029 7.864148,9.41292 23.795707,11.15761 32.213256,1.49565 10.662474,-10.91762 8.793226,-30.656541 -3.777517,-39.369707 -9.094334,-6.953621 8.885795,-6.241981 12.861215,-9.382886 10.418298,-3.355144 21.393848,-7.236598 32.469928,-5.645615 6.78403,0.969114 16.51129,12.145121 3.8938,12.098479 -15.66431,7.397235 -19.90212,31.235349 -6.47079,42.749129 9.10298,9.3987 25.91895,7.02126 32.6024,-4.05104 5.18833,-7.48402 6.38468,-18.0586 1.53317,-26.008682 6.56293,5.753362 20.52853,6.518932 21.74373,15.647872 -1.00596,12.59501 -2.25323,26.7745 -11.61967,36.27812 -10.22542,10.22494 -26.01,10.14381 -39.49841,10.84433 C 110.35613,158.43437 88.142407,159.68367 66,157.85763 Z m 54.56175,-10.34095 c 8.18027,-0.58766 2.82631,-12.8127 -2.04986,-5.10213 -8.37244,7.42535 -23.183051,-5.34645 -28.403486,-0.50011 5.771179,10.18732 21.118636,10.77552 30.453346,5.60224 z M 111.8,131.8 c 7.34754,-8.35698 -9.92434,-11.71249 -6.83407,-2.28061 1.29102,2.38292 4.42939,5.00309 6.83407,2.28061 z"
         id="path36" />
      <path
         style="fill:#d6c9af"
         d="m 163.71346,172.5253 c -2.35589,-8.96765 4.39973,6.63038 0.11816,0.22939 z M 144.40499,170.25 c 2.63723,-4.07698 8.80903,1.27274 1.23042,-0.32405 -1.34757,1.08445 -4.26321,3.41429 -1.23042,0.32405 z M 93.286014,103.5 c 0.758982,-7.033403 0.256664,7.45432 0,0 z M 54,95.534701 c 0.22062,-3.83846 6.389144,-8.276778 1.989663,-2.262039 C 55.826135,92.303447 54.43839,97.36734 54,95.534701 Z M 27.309869,72.5 c 0.398835,-8.140737 0.482982,9.24764 0,0 z M 32,44.626829 C 32.540383,39.85655 38.673229,34.472736 33.801772,42.143883 33.375556,42.818969 33.327803,45.066521 32,44.626829 Z M 112.29159,4.2575017 c 4.85012,-0.7445396 18.2346,0.5223967 5.78789,0.3297485 -0.44082,-0.1642404 -8.26488,0.425834 -5.78789,-0.3297485 z"
         id="path35" />
      <path
         style="fill:#eac896"
         d="m 89.75,159.25161 c 12.82452,-0.15627 25.65336,-0.22858 38.47559,0.11603 -14.14855,0.27966 -28.302626,0.27966 -42.451176,0 1.324693,-0.0592 2.649709,-0.0973 3.975586,-0.11603 z M 52,154.00899 c -3.320168,-1.17386 -12.225029,-9.66918 -3.916775,-3.42058 2.447737,1.14428 11.318083,7.12405 3.916775,3.42058 z m 114,-1.59537 c 3.84852,-2.84791 10.81817,-6.85775 3.46888,-1.04052 -2.0598,1.70074 -9.25458,4.27254 -3.46888,1.04052 z m -59.73625,-2.1312 c 8.65074,-1.22727 4.03954,1.72806 0,0 z M 117.5,148.11927 c 5.65997,0.3347 8.79145,-10.79504 1.1451,-5.05131 -1.27703,-2.56432 12.68727,-4.3644 5.45089,2.08378 -0.50906,1.31953 -13.37588,7.22625 -6.59599,2.96753 z M 93.972506,146.3537 c -11.025536,-4.9657 5.826189,-9.11655 4.818798,-3.48808 -4.137978,-2.12814 -11.734473,-1.55671 -4.133856,2.71202 1.921637,1.4191 2.099287,3.20147 -0.684942,0.77606 z m 11.726554,-15.37297 c -6.830921,-8.65106 12.05774,-11.18086 7.08038,-0.63141 -0.97159,2.97391 -5.62724,3.48021 -7.08038,0.63141 z M 35,118.66538 c 3.688594,-12.69644 9.286665,-26.641105 22.133642,-32.447662 9.143392,-1.083527 -6.59709,3.481259 -7.710244,6.645157 C 40.895696,99.13685 41.33624,112.07403 35,118.66538 Z M 184.08639,109 c -7.14832,-6.26867 -17.57248,-8.70197 -23.28176,-16.466481 6.05628,7.328502 19.73851,8.083351 23.96041,14.469811 z M 79,83 C 80.490594,76.165621 93.41552,79.366298 98.693501,74.822936 104.20419,73.194552 116.21687,69.07211 118.22367,70.722028 105.97138,75.43196 91.68885,76.157827 81.01742,84.05536 l -0.858755,-0.419819 z m 62.03938,-1.648763 c 0.30379,-8.049241 -14.98476,-11.21375 -15.09099,-11.359801 7.57869,-1.645061 19.39558,8.11681 19.14591,12.168469 -1.37823,-0.07488 -2.78285,-0.220347 -4.05492,-0.808668 z"
         id="path34" />
      <path
         style="fill:#b2cc98"
         d="m 67.01507,121.24845 c -5.715721,0.50752 -9.32903,-16.20185 -6.574244,-12.38108 3.276589,10.62418 17.006712,11.66584 23.899536,5.97788 -1.522978,6.21509 -11.838898,11.1335 -17.325292,6.4032 z M 138.5,122.26724 c -5.97965,-0.94011 -11.27419,-9.41352 -9.3837,-14.63906 2.36681,10.55741 17.81568,14.61706 24.50531,5.74836 -0.0376,6.50549 -9.5884,10.65325 -15.12161,8.8907 z"
         id="path33" />
      <path
         style="fill:#cfb58e"
         d="m 91.25,160.25214 c 10.58706,-0.12262 21.18407,-0.30336 31.76568,0.14437 -11.71989,0.2571 -23.445597,0.24855 -35.165094,-0.0257 1.132545,-0.0614 2.265363,-0.10042 3.399414,-0.11867 z m 2.40812,-15.38242 c -6.242124,-2.96528 2.733379,-6.14406 4.262774,-1.33626 -13.420776,-7.11563 7.394766,9.47603 -4.262774,1.33626 z m 26.84188,0.6527 c 6.19902,-3.22393 -6.88348,-1.3935 0.94911,-3.49363 10.14611,-4.05102 -5.41854,8.97518 -0.94911,3.49363 z m -14.25,-0.23867 c 5.03819,-0.76378 6.09018,1.26439 0.32433,0.0805 z M 34.272364,122 c 0.413225,-7.079 0.684976,6.8684 0,0 z m 150.013646,-7.5 c 0.63201,-6.36371 0.29311,7.51825 0,0 z M 123.26375,69.282419 c 8.65209,-1.227907 4.03821,1.728842 0,0 z M 36.971011,36.06492 C 44.532626,26.222239 54.836789,18.425135 66.536005,14.202671 55.864147,19.575634 46.249821,26.800194 38.003985,35.380477 37.65966,35.608624 37.315336,35.836772 36.971011,36.06492 Z M 102.26375,5.2824188 c 8.65211,-1.227894 4.03815,1.7288181 0,0 z"
         id="path32" />
      <path
         style="fill:#b0b3af"
         d="m 174.95821,152.75 c 2.09373,-3.41407 6.21903,-4.67846 1.44768,-0.82282 -3.85703,3.86103 -6.9417,6.44051 -1.44768,0.82282 z m -134.505262,-1 c -6.569632,-6.19988 2.448952,0.50137 3.243366,3.23361 -1.151119,-1.00518 -2.207144,-2.11235 -3.243366,-3.23361 z M 70.75,127.29427 c 5.171717,-0.78697 5.629467,1.53731 0,0 z m -42.118056,-4.38455 c -1.232376,-3.69924 -0.03332,-15.25781 0.483006,-5.21446 0.07551,0.82767 1.053791,11.71582 -0.483006,5.21446 z M 188.63171,123 c 1.31977,-12.45979 1.55028,-24.99644 2.20805,-37.5 -0.73211,13.377673 0.74246,26.99726 -2.45291,40.14802 l -0.0313,-1.32497 z M 59.316161,121.75 c -4.202559,-2.72493 -5.750533,-11.28027 -1.426662,-3.02489 1.798602,1.80604 5.556542,7.68001 1.426662,3.02489 z m 68.493119,-0.5 c -3.87973,-1.81823 -5.21029,-11.78417 -1.62585,-3.42604 1.20203,1.24417 5.77988,7.91159 1.62585,3.42604 z M 19.960723,119.29826 c 10.373414,0.94799 3.174068,-14.27182 4.696267,-20.694889 -0.620839,-5.22236 -0.428416,-7.741231 0.599312,-1.017164 -0.02099,7.060943 2.656257,19.579073 -3.229509,23.173943 l -1.150867,-0.63013 z m 173.425127,-0.89704 c -0.95626,-7.53423 -0.15074,-24.563909 1.77497,-25.897431 -1.07174,8.787181 -1.90361,22.953361 0.5267,28.282141 -0.80583,-0.38384 -2.60178,-1.06851 -2.30167,-2.38471 z M 18.336206,109 c 0.504263,-13.150062 0.547211,11.32897 0,0 z m 182.963454,1 c 0.39165,-7.65878 0.50266,8.27254 0,0 z M 53.309869,105.5 c 0.422585,-7.449997 0.396953,8.581 0,0 z m 69.000001,0 c 0.39898,-8.140741 0.48288,9.24764 0,0 z M 27.360496,98 c 0.60104,-12.276982 0.616656,12.93357 -0.0176,1.187068 z M 189.29966,79 c 0.39166,-7.658784 0.50264,8.272548 0,0 z"
         id="path31" />
      <path
         style="fill:#d9c574"
         d="m 34,113.54868 c -2.562836,-5.13413 10.826839,-18.04425 5.079354,-6.61737 -0.62522,1.71702 -5.07783,15.87626 -5.079354,6.61737 z m 139.40128,-13.03554 c -11.15534,-6.290388 -20.03256,-15.806083 -30.98081,-22.414981 -5.33048,-3.032648 -5.86083,-9.183928 1.09957,-5.025305 14.16427,3.772364 25.71809,13.467922 35.99161,23.504731 10.98041,5.468125 -1.28222,11.020805 -6.11037,3.935555 z M 34,85.166667 c 1.957182,-11.908882 3.888295,8.180334 -0.08927,2.033096 z M 64.5,82.007268 C 79.138086,74.915783 95.272852,70.829402 111.55073,70.457425 94.917032,76.534606 77.75985,81.120561 60.39489,84.559498 61.586382,83.444687 63.116222,82.829659 64.5,82.007268 Z M 37.481005,43.5 C 38.739096,38.947762 44.429079,28.836672 47.03175,30.44923 45.660928,32.405838 37.010626,48.164429 37.481005,43.5 Z"
         id="path30" />
      <path
         style="fill:#b1ab89"
         d="m 152.06618,113.29962 c 7.66613,-6.34782 -4.64766,7.20191 -0.36646,0.45526 l 0.33423,-0.41523 z M 84.440364,111.75 c 4.829656,-6.285 -0.864347,6.63818 0,0 z M 185.28601,105.5 c 0.63201,-6.363712 0.29311,7.51825 0,0 z m -127.08665,2 c 0.540046,-7.544001 4.338688,-2.19299 0.106996,0.93633 z m 70.54379,-1.5 c -2.05038,-6.107089 5.87029,-2.30671 0.8932,1.58849 -0.20863,2.10282 -1.05385,-2.54225 -0.8932,-1.58849 z"
         id="path29" />
      <path
         style="fill:#c8af6e"
         d="m 33.015313,109.41667 c 0.61896,-4.28558 7.285711,-5.81411 1.737484,-1.49409 0.0027,-0.4534 -1.662002,3.36352 -1.737484,1.49409 z M 173.62257,91.217572 c -9.09194,-9.178234 -20.72051,-15.612654 -33.0382,-19.336277 18.15066,2.462077 31.21349,16.530248 44.36549,27.924601 -4.82956,-1.210579 -7.56009,-5.752134 -11.32729,-8.588324 z M 33.551455,92.997326 c -4.172648,-3.648687 3.103565,-19.215276 4.2716,-9.627773 -1.149874,1.557155 -1.050208,13.38313 -4.2716,9.627773 z M 36.294448,84.75 c 1.430286,-11.617466 -6.385103,9.07149 -0.758345,2.363272 l 0.369403,-1.189282 z m 26.163373,-2.681753 c 5.078652,-3.16572 17.719,-8.011462 19.280069,-7.238784 -6.438704,2.379915 -12.668143,5.341892 -19.280069,7.238784 z m 119.827519,-9.34134 c -2.25577,-8.02902 4.30982,3.556372 0.19096,0.193883 z M 90.5,72 c 4.570822,-1.978888 7.683193,0.788696 0.796468,0.740437 C 90.881342,73.230206 85.986873,72.024964 90.5,72 Z m 10.25,-1.705733 c 5.17172,-0.786963 5.62947,1.537306 0,0 z M 34,52.125727 C 34.507854,41.071513 39.696963,30.417871 49.503585,24.839489 52.794751,22.345039 61.94717,15.839592 62.605667,17.466574 51.783361,27.495678 40.802856,38.308398 35.999157,52.647044 35.154136,54.880532 33.38807,55.166475 34,52.125727 Z M 45.157035,33.75 c 6.248262,-9.543813 -7.125026,2.205807 -7.250418,6.637894 C 34.867668,53.20839 42.145185,37.009773 45.157035,33.75 Z M 112.25,5.2715316 c 3.73209,-0.9891879 9.86425,0.8468292 2.57075,0.3842968 0.87366,-0.2327004 -4.92116,0.2979435 -2.57075,-0.3842968 z"
         id="path28" />
      <path
         style="fill:#bca36a"
         d="m 82,177.5 c -8.564352,-9.51807 8.716116,7.02048 1.656069,1.65685 l -0.773365,-0.75992 z M 33.729167,98.395833 c -2.393132,-3.833528 1.034029,-7.525648 0.261706,-1.189392 z M 45.5,93 c 10.918366,-10.608455 -7.395817,8.94584 0,0 z M 33,56.440983 C 27.654333,53.193448 36.314465,39.819036 36.265883,42.329447 33.470061,46.61037 35.069629,53.888173 36.554267,53.952361 36.111514,54.733332 33.252765,59.583683 33,56.440983 Z m 5,-7.80756 C 38.222329,44.81123 45.772186,35.526084 40.629727,44.587753 39.682176,45.781549 39.921333,48.445542 38,48.633423 Z M 57.5,22.480512 C 59.921097,17.865779 73.982975,12.113574 63.122465,18.999585 60.1273,21.284654 48.507321,30.753131 56.156921,23.745796 56.604614,23.324035 57.052307,22.902273 57.5,22.480512 Z M 106.28017,6.2637283 c 5.00831,-0.8372108 11.5048,0.8086018 2.87111,0.3786251 -0.32489,-0.055524 -6.29226,0.055977 -2.87111,-0.3786251 z"
         id="path27" />
      <path
         style="fill:#b0986d"
         d="m 106.75,146.29427 c 5.17172,-0.78697 5.62947,1.53731 0,0 z m 9.77795,-0.25883 c 0.52958,-4.27511 8.03488,1.60106 0,0 z"
         id="path26" />
      <path
         style="fill:#b99b5b"
         d="m 93.5,182.94528 c -5.415031,-0.009 -16.972541,-9.87696 -14.39223,-11.52843 5.053057,3.36889 19.665395,8.00636 17.636103,12.94843 -1.103983,-0.42244 -2.1366,-1.00531 -3.243873,-1.42 z m 68.9788,-5.91098 c 1.36422,-6.55911 -15.33518,-13.01403 -1.51011,-15.08776 3.5257,-3.36485 19.1614,-0.78775 9.28197,2.45011 -7.13814,-0.0332 -12.57255,7.43887 -6.19917,12.41111 -0.0811,0.95619 -1.94831,1.93345 -1.57269,0.22654 z m -8.59307,-5.15162 c -4.25251,-3.05715 -3.99437,-6.7703 0.57034,-1.38033 4.6048,4.25246 5.35441,8.25881 -0.57034,1.38033 z M 36.390801,102.90819 c 2.394732,-4.044726 5.836392,-4.696668 1.604831,-0.22775 -1.387269,2.54999 -5.736937,3.97649 -1.604831,0.22775 z m -2.757757,-0.60848 C 31.763804,94.306177 45.171568,82.225395 35.036001,77.858005 42.433897,74.99491 46.295457,67.948696 52.988804,63.934388 73.285336,49.6116 99.285415,45.532119 123.54118,49.048796 c 11.46617,1.780466 25.2906,2.834469 32.41092,13.340018 4.07705,12.642877 -13.88522,4.69134 -20.21376,4.070083 -31.47911,-4.791817 -66.972926,0.782834 -90.493466,23.813894 -4.43439,3.454416 -7.052704,8.707733 -11.61183,12.026919 z M 175.97111,91.25 c -2.81956,-2.881775 -7.70623,-8.012593 -2.02801,-2.560988 2.57574,2.023942 11.89904,12.146688 4.56589,5.200388 l -1.22909,-1.358507 z m -11.43524,-9.365945 c -9.06661,-7.090566 8.91464,4.55932 1.6068,1.188309 z M 58,83.505058 C 60.496433,80.416722 74.301735,75.996549 63.861428,81.079751 61.969084,82.022866 60.052538,82.959163 58,83.505058 Z m 124.06976,-8.368315 c -4.83233,-2.92059 1.98939,-10.317487 -0.15974,-2.62086 1.09493,2.681014 3.45571,7.874037 0.15974,2.62086 z M 29.375083,69.5 C 29.647564,62.377164 31.449729,56.754594 36.405572,53.224753 42.354628,41.687476 48.024516,29.196816 59.310188,21.853591 77.234462,7.9279357 101.11028,7.1482471 122.83648,6.4408516 c 10.00639,0.7801391 20.85844,7.1120224 27.37548,15.0198834 3.85134,6.667781 10.08346,26.020347 -4.22999,20.869278 C 117.06574,40.157278 86.563118,40.736736 60.150998,54.131539 49.475543,57.630627 43.230689,70.224387 31.286001,70.211762 30.616286,70.067256 30.007505,69.750623 29.375083,69.5 Z M 112.98896,37.505711 c 11.76173,-4.066908 4.09804,-25.062214 -7.52544,-20.005938 -12.04165,3.29532 -7.638831,23.627153 4.7571,21.170373 1.00661,-0.209246 1.90201,-0.616337 2.76834,-1.164435 z"
         id="path25" />
      <path
         style="fill:#8e928d"
         d="m 140.26375,126.28242 c 8.6507,-1.22727 4.0396,1.72806 0,0 z M 20.2,118.8 c -2.419393,-3.59291 -0.02673,-17.58964 -0.685447,-6.4465 -0.703956,0.90272 4.324583,10.23063 0.685447,6.4465 z m 3.603053,-12.21478 c 1.324706,-4.47369 -2.210388,-19.710822 0.857679,-7.364925 0.555157,5.028075 0.226434,18.371105 -0.744629,18.202935 -0.281331,-3.60614 -0.172902,-7.226 -0.11305,-10.83801 z M 194.43162,118.6824 c -0.6564,-5.64804 -0.0979,-17.905 0.1302,-19.509522 -0.23478,6.434882 1.90632,13.332612 -0.1302,19.509522 z M 200.36996,107 c -0.2163,-10.527887 1.56528,2.25542 0.0342,4.22848 -0.14614,-1.40743 -0.004,-2.81855 -0.0342,-4.22848 z m -11.03375,-1 c 0.50426,-13.150062 0.5472,11.32897 0,0 z m -97.050196,-0.5 c 0.758982,-7.0334 0.256664,7.45432 0,0 z M 161.29966,105 c 0.39166,-7.658779 0.50264,8.27254 0,0 z M 28.378169,98 c -0.38438,-6.378947 0.992766,-5.575127 0.548388,0.555186 0.240801,3.676924 -0.832733,6.813064 -0.574661,1.112372 z M 189.27236,88 c 0.41323,-7.079004 0.68499,6.868398 0,0 z"
         id="path24" />
      <path
         style="fill:#928c6d"
         d="m 104.5,170.32157 c -3.49717,0.40035 -16.435825,-5.00057 -6.455237,-2.33766 7.535877,1.78908 15.370957,1.41557 23.008887,0.59192 -5.28149,1.93381 -11.00563,1.99675 -16.55365,1.74574 z m -13.187592,-9.06999 c 11.482892,-0.14728 22.970982,-0.24972 34.450962,0.11866 -12.71282,0.27566 -25.4318,0.28547 -38.14453,-9.5e-4 1.230648,-0.0599 2.461623,-0.0984 3.693568,-0.11771 z m 10.986822,-13.30201 c -3.933918,-4.68051 9.67484,-0.90141 12.5362,-0.99748 4.1185,1.27605 -10.09263,2.30652 -12.5362,0.99748 z M 32.32814,88.5 c 0.187759,-8.341718 -0.412715,3.515902 0.193145,3.201865 l -0.08898,-1.202366 z"
         id="path23" />
      <path
         style="fill:#aa8c52"
         d="m 100.17933,191.00707 c -3.783964,-0.82263 -16.842469,-11.69406 -6.143274,-7.59662 11.004534,2.18087 -4.337022,-6.93288 -7.73587,-8.19677 -5.020241,-1.90258 -17.068848,-11.50618 -6.268959,-4.80702 8.17272,4.22512 17.403203,7.27647 23.653373,14.37512 2.51309,6.90813 -13.68161,-0.7702 -4.073416,4.97288 11.850386,5.42763 22.597356,-5.68089 31.951096,-11.46825 9.91792,-6.17472 -4.10184,4.86161 -6.82693,6.14557 -7.17551,3.34377 -16.64101,12.10237 -24.55602,6.57509 z M 155.19565,171.5 c -5.38746,-1.28793 -8.40417,-10.69933 -1.03512,-6.08318 4.12924,1.31584 12.61917,14.51478 3.77934,8.70426 l -1.37177,-1.31305 z m -60.396472,-1.02615 c -8.344471,-1.86156 -0.331374,-5.0919 3.602747,-1.17865 9.775645,2.75241 19.689905,-1.04082 29.537255,-0.9598 -9.08974,4.89867 -20.0079,3.44127 -29.917245,2.81604 -1.083864,-0.17619 -2.160501,-0.39882 -3.222757,-0.67759 z M 33,103.89235 c 15.811676,-21.75502 41.066794,-36.182306 67.95095,-38.161489 15.20008,-1.383592 31.08771,-1.167457 45.72314,3.151242 8.0544,4.973892 14.46536,-5.939301 5.8415,-10.688953 -8.7631,-7.510554 -21.09568,-7.521013 -31.92015,-9.605797 -22.799004,-2.690832 -46.699619,1.628717 -66.126075,14.17533 -6.100037,3.049991 -17.849604,18.383738 -20.465827,14.388746 2.92747,-2.138224 12.058654,-8.69738 3.029157,-4.827945 -5.57438,-2.416621 -8.356159,8.017799 -7.746848,0.121309 6.870075,-3.48194 14.797691,-5.47175 20.43759,-11.984848 26.101361,-18.103056 59.325033,-20.638902 90.092023,-18.55037 9.08888,2.312416 19.52523,1.391567 14.24973,-10.137661 -1.93072,-9.970653 -9.23716,-18.798659 -19.26671,-21.324989 -11.35404,-5.0907096 6.17026,-2.8371107 9.6588,-1.313673 15.87443,3.726707 30.46726,14.534237 35.92863,30.296992 3.83194,6.879324 7.52116,23.36547 6.67441,25.599937 -4.09453,-18.287396 -9.91414,-39.055386 -27.53486,-48.799594 -3.48829,-2.076945 -15.4604,-8.1398303 -14.55225,-3.713165 6.87108,7.746706 17.44191,21.287306 9.2292,31.060442 -11.03483,3.19377 -22.90627,-1.940535 -34.36681,-0.555975 -5.11411,0.07827 -16.13032,0.265602 -17.54181,1.842393 11.61394,3.159689 23.91304,2.250424 35.52274,5.434123 8.00963,1.672275 17.61585,5.604494 19.82516,14.308807 -0.7875,13.090361 -18.46142,0.971656 -26.58588,2.385115 -11.73798,1.937862 -18.52165,-2.40524 -30.18006,-0.267492 -13.044669,1.375522 -25.85047,5.252798 -37.356299,11.574209 7.805628,-0.126853 -8.276876,3.827033 -9.606332,6.52974 -7.562953,5.196569 -12.802326,15.609756 -20.743017,19.246486 z M 71,52.338829 C 74.509065,48.78195 58.292535,57.092741 68.411371,53.605855 69.300657,53.237091 70.1469,52.782565 71,52.338829 Z M 96,46 C 94.840544,43.12853 84.717451,48.360648 93.448502,46.53629 94.314382,46.44748 95.14827,46.169499 96,46 Z m 81.4687,45.75 c -3.87845,-4.0522 -6.25852,-6.448538 -0.61185,-1.317723 2.64274,1.990093 8.67595,9.798293 2.91294,3.70464 l -1.14737,-1.196525 z m 1.6473,-22.416667 c 0.5758,-5.48199 8.7384,0.864396 1.28192,-0.773052 -0.19141,0.120035 -1.67746,4.081078 -1.28192,0.773052 z m -78.19292,-34.25641 c -8.855732,-7.480463 3.0547,-21.725647 12.52044,-17.245253 4.14194,1.331978 6.77654,10.599642 1.43077,2.659952 -7.55142,-8.535717 -20.392078,4.057901 -14.18567,13.111225 1.55811,3.225357 5.34254,5.098703 0.23446,1.474076 z"
         id="path22" />
      <path
         style="fill:#a7884e"
         d="m 99.77652,189.59892 c -9.323496,-3.88371 8.8149,-0.0461 2.60338,-6.33707 -5.764193,-8.08697 -22.458526,-8.93068 -24.762355,-16.50967 10.700278,-0.52378 20.697544,6.37719 31.688145,5.30577 8.71012,2.27034 16.32583,-5.85134 23.69545,-3.93471 7.87259,9.79139 -8.05023,13.35959 -13.77198,18.42675 -5.5849,3.55927 -13.14565,6.80559 -19.45264,3.04893 z m 80.67643,-95.724177 c -4.91897,-5.566063 -19.0592,-15.449556 -19.38968,-16.648742 8.81792,4.975111 16.40464,12.051239 22.76303,19.872106 -1.21721,-0.973807 -2.27735,-2.120429 -3.37335,-3.223364 z M 57,82.137004 C 75.59359,69.851271 98.411215,64.938929 120.5,66.222553 98.460433,68.104351 75.93488,71.840865 56.381116,82.75154 l 0.378237,-0.37558 3.78e-4,-3.75e-4 z m 123.67922,-6.683488 c -3.9363,-8.149371 4.40543,5.488129 0,0 z M 30.30653,75.2161 c 2.28375,-4.313925 16.523696,-6.225174 7.363954,-0.03928 -1.865926,1.776784 -6.359119,4.016282 -7.363954,0.03928 z m 120.23575,-2.412447 c -2.83865,-2.278381 -16.22468,-3.341982 -13.16306,-5.551806 6.90746,3.915587 26.02778,6.74482 18.70068,-6.466567 -7.25104,-10.258768 -21.05756,-10.874594 -32.35374,-12.877084 -6.46717,-0.932012 -19.09259,-1.332975 -21.62425,-3.316604 14.75347,-2.96896 29.98518,-1.234773 44.79456,0.132577 13.85391,1.8765 11.40156,-15.450469 5.57659,-22.510379 -2.11892,-4.217268 -14.68705,-15.0515252 -3.35203,-10.724206 18.02867,5.433578 30.92185,22.362497 34.5123,40.440398 5.45121,5.652253 2.20821,21.256469 -6.75974,14.714184 -5.29599,-11.153418 -18.69928,-13.1745 -29.28743,-16.479639 -9.36176,-0.03488 14.6697,6.732167 11.53548,15.359339 0.67849,4.846867 -3.53072,9.796239 -8.57936,7.279787 z M 64,54.542637 C 67.444436,51.146385 76.147638,51.161539 67.458088,53.942386 66.410386,54.424068 65.183216,55.168985 64,54.542637 Z M 90,46 c 4.270666,-2.375514 8.618012,0.845668 1.783152,0.728586 C 90.838071,46.944373 85.67462,46.877891 90,46 Z"
         id="path21" />
      <path
         style="fill:#968554"
         d="m 135.2,172.8 c -3.96214,-4.98414 12.82183,-1.90399 3.33799,0.72859 -1.07741,0.68512 -2.78711,0.63351 -3.33799,-0.72859 z M 32.378169,106 c -0.38438,-6.378947 0.992766,-5.57513 0.548388,0.55519 0.240801,3.67692 -0.832733,6.81305 -0.574661,1.11237 z M 185.19268,75.25 c -2.61739,-4.431369 4.10155,-8.600328 0.77947,-2.023707 -0.28507,4.271517 -0.72918,11.763402 -0.77947,2.023707 z M 103.77514,36.441198 c -13.360372,-6.543861 4.05479,-27.3726777 12.68145,-14.59132 6.5785,7.447331 -4.19624,20.838809 -12.68145,14.59132 z m 10.77261,-3.087221 c 10.21392,-10.328016 -13.90006,-21.030066 -14.38673,-5.935502 -0.14403,6.924772 9.77077,12.33797 14.38673,5.935502 z"
         id="path20" />
      <path
         style="fill:#778768"
         d="m 104.74962,33.283708 c -7.87228,-3.011967 1.8867,-5.124865 4.93372,-3.176657 12.98548,-5.779036 0.5498,7.301289 -4.93372,3.176657 z"
         id="path19" />
      <path
         style="fill:#987c4d"
         d="m 134,167.96778 c -5.402,-6.23898 21.11336,-3.05077 7.48025,-0.60882 -2.49228,0.22414 -5.10344,-0.48585 -7.48025,0.60882 z M 74,166 c 2.958241,-3.58105 19.04107,0.64206 7.794382,0.93916 C 79.179619,166.93319 76.481825,166.95655 74,166 Z M 179.5,91.951191 c -6.16255,-8.160977 -16.6304,-11.483274 -23.14673,-19.171618 9.11487,-9.694098 -6.03498,-19.164934 -12.45553,-23.273014 7.51607,1.985091 15.56541,3.008284 22.4699,6.806215 8.37879,4.700609 12.47079,13.7092 16.2941,21.996053 3.1333,4.856651 8.4722,17.411082 2.76093,19.339937 -1.84288,-2.032837 -3.98279,-3.762716 -5.92267,-5.697573 z"
         id="path18" />
      <path
         style="fill:#6e726a"
         d="m 173.92061,149.75394 c 7.97084,-5.67263 1.33416,0.66299 -1.54454,1.69786 l 0.55823,-0.64157 z M 195.38176,107.5 c -0.49921,-4.86239 0.83718,-7.01244 0.54522,-0.97926 0.18992,5.1123 -0.82237,10.74632 -0.54522,0.97926 z m -7.04555,-0.5 c 0.50426,-13.150062 0.5472,11.32897 0,0 z M 29.385359,98 c -0.49659,-4.382198 0.790239,-7.84144 0.539223,-1.471029 C 30.127619,101.46297 29.166631,108.3664 29.385359,98 Z M 188.30987,82.5 c 0.39898,-8.140743 0.48288,9.247643 0,0 z"
         id="path17" />
      <path
         style="fill:#6c6e55"
         d="m 136.66667,171.33333 c -3.17789,-11.47254 10.4273,1.59455 0,0 z M 105.25,168.27153 c 3.73209,-0.98918 9.86425,0.84681 2.57075,0.3843 0.87364,-0.2327 -4.92113,0.29795 -2.57075,-0.3843 z m 27.25,-3.36443 c 0.44884,-2.36835 16.14885,0.17097 5.67434,0.29808 -1.89502,0.01 -3.7912,-0.0838 -5.67434,-0.29808 z m -58.23625,-0.62468 c 8.650777,-1.22726 4.039522,1.72806 0,0 z m 70.81958,-0.65429 c 3.50195,-1.99662 11.00239,-0.32653 3.09677,0.15885 -0.96742,0.0683 -2.21154,0.56469 -3.09677,-0.15885 z M 85.25,162.25845 c 4.834772,-0.74017 19.07009,0.50654 6.286184,0.31089 -1.295452,-0.25204 -6.541147,0.63153 -6.286184,-0.31089 z m 32.5,0.004 c 4.83666,-0.84241 14.09673,0.77813 3.89889,0.3335 -0.33307,-0.0925 -6.16228,0.34349 -3.89889,-0.3335 z m 65.63787,-28.71755 c -0.0115,-5.29619 4.14465,-12.46793 1.80375,-3.03329 -0.0687,0.50855 -2.44026,6.75929 -1.80375,3.03329 z M 32.286014,122.5 c 0.758982,-7.0334 0.256664,7.45432 0,0 z M 139,125 c 4.36183,-4.08254 8.22994,4.0851 0,0 z m 47.01531,-8.75 c 0.0659,-9.39512 2.13404,6.88723 0,0 z M 30.952736,98 c 0.784692,-5.129059 -1.97642,-11.471744 0.677754,-15.844483 0.53668,9.333249 -0.07726,27.802753 -0.180473,31.746163 C 31.284257,108.60112 31.118496,103.30056 30.952736,98 Z M 186.60699,87.418213 c -1.38012,-4.18027 -0.33055,-22.633365 0.77459,-8.654955 0.25382,2.814246 1.33954,6.303757 -0.77459,8.654955 z M 103.44113,34.44159 c 4.12016,0.126809 16.10385,-5.099261 10.72022,-5.931235 -7.1567,8.013488 -20.858816,-5.719127 -7.58944,-8.782086 14.01214,-2.775693 11.86443,21.824402 -1.68974,15.593438 z m 8.73013,-6.096578 c 6.02845,-9.420573 -15.015523,-1.491729 -3.38564,1.594933 l 1.832,-0.492284 z"
         id="path16" />
      <path
         style="fill:#596653"
         d="m 82.75,164.29427 c 5.171717,-0.78697 5.629467,1.53731 0,0 z M 67.5,162.38446 c -7.633148,-3.19398 8.214826,1.98286 1.911323,0.52711 z M 137,163 c -8.67639,-2.42807 17.17216,1.77981 1.61676,0.23526 z m -30.25,-0.70573 c 5.17172,-0.78697 5.62947,1.53731 0,0 z M 56.5,159.53611 c -5.437129,-3.63824 8.452985,2.5895 1.828294,0.59295 z m -11.420474,-5.97744 c -4.405071,-2.10562 -4.367752,-6.60413 -0.294863,-1.62733 2.710084,1.68492 4.907854,5.65024 0.294863,1.62733 z m 124.022224,1.78022 c 1.15333,-3.28032 11.86678,-10.09122 4.56232,-3.27605 -1.34728,1.28243 -2.59903,2.94459 -4.56232,3.27605 z M 75.296159,124.57537 c 2.960426,-0.91694 13.212208,-7.16035 6.612827,-1.10465 -1.098491,0.34967 -13.784561,4.50236 -6.612827,1.10465 z m -44.642561,-6.30519 c -0.585251,-7.97277 -0.772968,-22.591161 -0.149265,-26.871338 0.529646,11.116768 1.02486,22.239878 1.051133,33.371338 -0.550828,-2.12622 -0.658521,-4.32709 -0.901868,-6.5 z m 116.844172,5.15442 c 2.78168,-4.09087 8.41648,-2.54328 2.42049,0.5537 -1.3004,1.38841 -6.47212,0.8683 -2.42049,-0.5537 z m -85.422406,-1.33287 c -9.704538,-11.32096 9.585324,5.37993 0,0 z m 67.983976,-1.65708 c -5.15871,-2.29935 -1.05628,-7.45826 0.87208,-1.32968 4.45816,3.14988 3.901,6.32631 -0.87208,1.32968 z M 21.711195,118.2911 c 2.272056,-5.12733 1.473899,-16.722 1.808415,-18.400566 -0.665384,5.965716 1.815926,13.285796 -1.808415,18.400566 z M 20.320074,111 c 0.435624,-8.96961 0.493145,8.15805 0.02263,0.40417 z m 166.989796,0.5 c 0.39898,-8.14073 0.48288,9.24764 0,0 z m 12.01827,-2 c 0.24212,-8.24509 -0.42999,3.49367 0.16645,3.15999 l -0.0786,-1.18628 z M 68.036355,95.543805 c -4.2674,-3.641889 5.552684,-8.112001 0.493018,-1.824442 -0.0226,0.295534 2.199726,5.329164 -0.493018,1.824442 z M 106.2,28.8 c -4.74755,-4.396572 8.90481,-6.697463 0.90087,-3.013848 -1.27717,7.02864 12.27222,-4.181029 3.61413,3.640631 -1.41101,0.751082 -3.44435,0.752455 -4.515,-0.626783 z"
         id="path15" />
      <path
         style="fill:#4c5448"
         d="m 105.75,167.2766 c 5.01265,-1.00683 7.49625,1.19405 0.59857,0.36056 l -1.13507,-0.1108 z m 16.75,-2.24624 c -4.41247,-2.2576 -7.87625,-1.16729 -1.00256,-2.10887 12.83449,-1.2265 -1.78742,5.03748 1.00256,2.10887 z m -39.487606,-0.81797 c -3.371016,0.87018 -14.519103,-1.83437 -4.726951,-1.43113 7.232884,0.0449 14.489014,-0.0147 21.685933,0.81605 -5.60199,0.94953 -11.305658,0.69133 -16.958982,0.61508 z m 49.755516,-0.93712 c 6.34005,-1.13381 7.20834,1.6718 0,0 z M 162,158.78651 c 3.76712,-3.94481 8.60199,-1.93047 1.39962,-0.16154 l -0.73111,0.3141 z m -8.90307,-38.70375 c 5.22889,-7.79176 2.38316,2.51384 -1.97397,2.72236 l 0.78464,-1.12258 z m -95.583961,-4.05768 c -3.190759,-3.22196 -1.560759,-18.215082 -0.730395,-6.85478 -0.0206,1.19653 4.514402,13.4959 0.730395,6.85478 z M 21.732743,113.75 c 1.078616,-9.59378 1.661792,8.61022 -0.06949,0.90051 l 0.04101,-0.53145 z M 196.21478,107.5 c -1.9134,-3.49431 2.12327,-17.612863 2.62799,-6.8276 -0.67104,3.73797 -1.87163,-4.281947 -1.63719,3.01001 -0.36796,5.03289 -0.8378,19.57822 -0.93443,7.18576 -0.0188,-1.12271 -0.0376,-2.24551 -0.0564,-3.36817 z m -70.33492,6.75 c -2.61353,-3.87909 -0.71972,-16.828455 -0.0827,-5.51232 0.0354,1.10389 2.93153,11.23884 0.0827,5.51232 z M 21.58808,101.75753 c -1.339889,-11.097841 3.997452,2.8551 0.17054,1.38391 z m 115.79747,-9.572352 c -0.27329,-4.977683 7.70477,0.223673 1.1057,0.538781 -0.31439,0.231862 -1.61809,0.224122 -1.1057,-0.538781 z M 106.40624,27.848296 c 2.32296,-10.013018 12.34923,3.502845 0,0 z"
         id="path14" />
      <path
         style="fill:#464e3b"
         d="m 158.13277,107.5 c 0.41473,-8.310852 1.26912,7.57938 0.0244,0.19896 L 158.13273,107.5 Z M 89,107.55902 c 0.09096,-7.727958 2.089197,6.45766 0,0 z M 154.16004,101.25 c 1.3111,-7.583253 2.11212,0.65722 0.19153,2.20192 l -0.11976,-0.78758 z M 85,99.940983 c 0.615667,-8.286805 1.883648,3.693867 0.414161,2.980667 l -0.195163,-1.12514 z M 72.5,90 c -8.883493,-2.372486 12.795807,1.540839 0,0 z"
         id="path13" />
      <path
         style="fill:#3e4641"
         d="m 98.5,165.61111 c -5.344003,-2.74005 8.45893,-1.49554 10.91895,-1.93207 4.8424,-0.20628 20.47193,0.63984 7.65097,2.47346 -6.13994,1.00922 -12.53219,1.13816 -18.56992,-0.54139 z M 197.24145,107 c 0.10904,-4.06473 -0.34721,-15.081151 0.9674,-5.27223 1.80023,4.69315 -1.00569,19.97004 -0.92916,7.04129 L 197.24133,107 Z m -176.061161,2 c 1.529514,-13.031585 0.503452,14.4981 0.01152,1.61508 -0.0038,-0.53836 -0.0077,-1.07672 -0.01152,-1.61508 z m 69.092075,-4 c 0.413226,-7.079001 0.684975,6.8684 0,0 z"
         id="path12" />
      <path
         style="fill:#394636"
         d="M 88.977764,106.25 C 89.858343,98.770222 72.462666,97.733124 77.431323,94.049531 82.569899,93.46978 91.623686,101.95205 88.977764,106.25 Z m 68.600846,-1.79282 c -0.36472,-6.193368 -15.72582,-8.220512 -11.82932,-10.626402 5.40658,0.954878 14.91141,6.929262 12.36205,12.446362 z M 56.135115,105 c -1.440085,-5.207513 5.885429,-7.140884 0,0 z"
         id="path11" />
      <path
         style="fill:#2d3428"
         d="m 65.923077,112.07692 c -10.264682,-3.21955 10.369173,-12.660686 0.194144,-6.336 -3.768521,8.89024 12.716069,10.9104 16.975296,4.33539 -4.200868,5.29156 -12.113724,7.56054 -17.16944,2.00061 z m 70.945493,1.41323 c -6.44246,-6.76911 8.24269,4.83627 11.35905,-1.20749 10.25455,-6.4796 -5.34341,7.28174 -9.77837,1.96191 z M 84,102.67431 c 4.152519,-8.209919 -19.790623,-11.805541 -6.055401,-10.189778 5.787188,0.750908 9.308333,11.191298 6.086387,12.868158 l -0.01195,-0.91061 z m 69,-0.21976 c 4.3663,-9.458605 -14.00353,-8.739314 -12.46435,-9.675996 7.78925,-4.986722 18.02107,6.338155 12.84745,13.793626 l -0.3475,-2.03495 z M 86.689858,95.649415 c -6.243367,-9.716394 -21.025615,-6.914956 -28.589996,-0.427321 -0.810394,-5.619346 15.38651,-12.369095 7.868282,-6.791293 6.791961,-0.03024 12.866937,-2.356894 17.172268,-0.545801 1.595449,0.314657 8.549344,11.705721 3.549446,7.764415 z M 126,97.531364 c 2.12036,-9.065692 9.39562,-11.149869 17.29446,-9.810758 3.99398,1.840445 7.96836,-0.33442 8.5742,0.08701 3.86586,2.076076 8.58382,12.757578 1.37978,5.456632 -7.16183,-6.777646 -18.71097,-5.099866 -24.94565,2.035697 -0.78776,0.722666 -1.55185,1.47072 -2.30279,2.231423 z"
         id="path10" />
      <path
         style="fill:#0c0604"
         d="m 67.076725,111.41111 c -7.897262,-5.57853 11.16139,-9.36071 3.513131,-15.524639 8.619515,-9.769836 20.866983,10.770489 9.558592,16.069349 -3.774055,2.79937 -9.672427,2.96508 -13.071723,-0.54471 z M 139,113.34425 c -6.80947,-1.01404 -5.95974,-10.83679 1.04142,-10.58833 -1.42943,-6.412212 1.81074,-14.196407 8.90402,-8.42028 9.81289,6.36078 1.09864,24.0254 -9.94544,19.00861 z M 64.469102,88.43283 c 3.421128,-4.941704 17.507145,-1.978294 14.059249,-0.694492 -4.710305,-1.470397 -9.343419,1.643009 -14.059249,0.694492 z m 68.569188,0.02103 c 2.79735,-6.117344 17.47242,-2.091485 16.30741,-0.01955 -5.30742,-1.861441 -10.8909,0.07743 -16.30741,0.01955 z"
         id="path9" />
    </g>
  </g>
</svg>
